<?xml version="1.0" encoding="UTF-8"?>
<!DOCTYPE svg PUBLIC "-//W3C//DTD SVG 1.1//EN" "http://www.w3.org/Graphics/SVG/1.1/DTD/svg11.dtd">
<svg xmlns="http://www.w3.org/2000/svg" version="1.1" width="500px" height="500px" style="shape-rendering:geometricPrecision; text-rendering:geometricPrecision; image-rendering:optimizeQuality; fill-rule:evenodd; clip-rule:evenodd" xmlns:xlink="http://www.w3.org/1999/xlink">
<g><path style="opacity:1" fill="#fefefe" d="M -0.5,-0.5 C 166.167,-0.5 332.833,-0.5 499.5,-0.5C 499.5,166.167 499.5,332.833 499.5,499.5C 332.833,499.5 166.167,499.5 -0.5,499.5C -0.5,332.833 -0.5,166.167 -0.5,-0.5 Z"/></g>
<g><path style="opacity:1" fill="#71dfc6" d="M 197.5,117.5 C 210.717,119.635 222.717,124.802 233.5,133C 236.118,135.106 238.118,137.606 239.5,140.5C 231.837,137.225 223.837,135.059 215.5,134C 217.833,133.667 220.167,133.333 222.5,133C 203.29,127.628 184.457,128.794 166,136.5C 165.5,136.333 165,136.167 164.5,136C 171.903,132.566 179.569,129.9 187.5,128C 151.964,130.366 129.797,148.866 121,183.5C 120.667,180.167 120.333,176.833 120,173.5C 117.602,187.006 118.268,200.339 122,213.5C 122.21,211.942 122.71,210.609 123.5,209.5C 123.7,214.264 124.2,218.931 125,223.5C 104.697,189.156 109.53,158.99 139.5,133C 156.969,121.013 176.303,115.846 197.5,117.5 Z"/></g>
<g><path style="opacity:1" fill="#94e6d3" d="M 197.5,117.5 C 211.67,117.338 224.67,121.005 236.5,128.5C 239.597,132.694 241.597,137.361 242.5,142.5C 241.5,141.833 240.5,141.167 239.5,140.5C 238.118,137.606 236.118,135.106 233.5,133C 222.717,124.802 210.717,119.635 197.5,117.5 Z"/></g>
<g><path style="opacity:1" fill="#42d4b3" d="M 239.5,140.5 C 240.5,141.167 241.5,141.833 242.5,142.5C 243.404,143.209 243.737,144.209 243.5,145.5C 243.5,146.833 243.5,148.167 243.5,149.5C 217.298,135.828 189.964,132.995 161.5,141C 132.41,153.035 119.743,174.535 123.5,205.5C 123.5,206.833 123.5,208.167 123.5,209.5C 122.71,210.609 122.21,211.942 122,213.5C 118.268,200.339 117.602,187.006 120,173.5C 120.333,176.833 120.667,180.167 121,183.5C 129.797,148.866 151.964,130.366 187.5,128C 179.569,129.9 171.903,132.566 164.5,136C 165,136.167 165.5,136.333 166,136.5C 184.457,128.794 203.29,127.628 222.5,133C 220.167,133.333 217.833,133.667 215.5,134C 223.837,135.059 231.837,137.225 239.5,140.5 Z"/></g>
<g><path style="opacity:1" fill="#72b5b3" d="M 236.5,128.5 C 240.049,129.723 243.049,131.723 245.5,134.5C 244.957,134.56 244.624,134.893 244.5,135.5C 247.563,140.752 248.896,146.419 248.5,152.5C 248.167,152.5 247.833,152.5 247.5,152.5C 246.921,149.669 245.588,147.336 243.5,145.5C 243.737,144.209 243.404,143.209 242.5,142.5C 241.597,137.361 239.597,132.694 236.5,128.5 Z"/></g>
<g><path style="opacity:1" fill="#07c59a" d="M 243.5,149.5 C 243.107,152.416 242.107,155.083 240.5,157.5C 209.798,141.051 179.465,141.551 149.5,159C 139.48,167.17 132.48,177.336 128.5,189.5C 126.033,194.568 124.366,199.902 123.5,205.5C 119.743,174.535 132.41,153.035 161.5,141C 189.964,132.995 217.298,135.828 243.5,149.5 Z"/></g>
<g><path style="opacity:1" fill="#079f88" d="M 243.5,149.5 C 243.5,148.167 243.5,146.833 243.5,145.5C 245.588,147.336 246.921,149.669 247.5,152.5C 247.461,155.321 246.795,157.988 245.5,160.5C 244.167,159.833 242.833,159.167 241.5,158.5C 240.008,160.166 238.175,161.166 236,161.5C 229.084,159.319 222.917,157.152 217.5,155C 207.509,153.466 197.509,153.133 187.5,154C 190.063,153.237 190.063,152.737 187.5,152.5C 177.01,154.496 167.177,158.162 158,163.5C 157.586,163.043 157.086,162.709 156.5,162.5C 153.5,165 150.5,167.5 147.5,170C 147.728,170.399 148.062,170.565 148.5,170.5C 140.544,175.455 133.877,181.789 128.5,189.5C 132.48,177.336 139.48,167.17 149.5,159C 179.465,141.551 209.798,141.051 240.5,157.5C 242.107,155.083 243.107,152.416 243.5,149.5 Z"/></g>
<g><path style="opacity:1" fill="#519098" d="M 245.5,134.5 C 248.167,136.5 250.5,138.833 252.5,141.5C 252.062,141.435 251.728,141.601 251.5,142C 253.986,146.85 254.986,152.016 254.5,157.5C 251.911,156.581 249.911,154.914 248.5,152.5C 248.896,146.419 247.563,140.752 244.5,135.5C 244.624,134.893 244.957,134.56 245.5,134.5 Z"/></g>
<g><path style="opacity:1" fill="#f6d18e" d="M 311.5,160.5 C 304.158,156.008 296.158,154.174 287.5,155C 284.421,156.248 281.754,158.081 279.5,160.5C 279.5,159.5 279.5,158.5 279.5,157.5C 272.589,163.911 266.589,171.077 261.5,179C 262.337,180.011 262.67,181.178 262.5,182.5C 258.578,187.928 254.078,192.928 249,197.5C 248.51,198.793 248.343,200.127 248.5,201.5C 247.448,201.351 246.448,201.517 245.5,202C 240.631,207.037 235.631,211.87 230.5,216.5C 228.692,215.683 227.192,216.35 226,218.5C 225.667,218.167 225.333,217.833 225,217.5C 220.574,222.434 215.74,226.767 210.5,230.5C 218.464,222.035 226.631,213.702 235,205.5C 239.787,200.559 243.954,195.225 247.5,189.5C 249.914,188.089 251.581,186.089 252.5,183.5C 257.186,178.142 261.519,172.475 265.5,166.5C 266.89,165.101 267.89,163.434 268.5,161.5C 275.116,152.195 284.116,148.362 295.5,150C 303.578,152.803 311.578,155.803 319.5,159C 316.883,159.822 314.216,160.322 311.5,160.5 Z"/></g>
<g><path style="opacity:1" fill="#3b677d" d="M 252.5,141.5 C 258.966,147.296 264.3,153.962 268.5,161.5C 267.89,163.434 266.89,165.101 265.5,166.5C 264.883,166.389 264.383,166.056 264,165.5C 263.581,166.672 262.915,167.672 262,168.5C 261,167.167 260,165.833 259,164.5C 258.077,165.759 257.243,167.092 256.5,168.5C 255.479,166.812 254.145,165.479 252.5,164.5C 253.167,162.167 253.833,159.833 254.5,157.5C 254.986,152.016 253.986,146.85 251.5,142C 251.728,141.601 252.062,141.435 252.5,141.5 Z"/></g>
<g><path style="opacity:1" fill="#0a827b" d="M 247.5,152.5 C 247.833,152.5 248.167,152.5 248.5,152.5C 249.911,154.914 251.911,156.581 254.5,157.5C 253.833,159.833 253.167,162.167 252.5,164.5C 250.145,163.906 247.978,162.906 246,161.5C 244.301,163.533 242.301,165.2 240,166.5C 226.502,158.4 212.002,155.567 196.5,158C 194.68,158.2 193.347,159.034 192.5,160.5C 176.807,159.637 162.14,162.97 148.5,170.5C 148.062,170.565 147.728,170.399 147.5,170C 150.5,167.5 153.5,165 156.5,162.5C 157.086,162.709 157.586,163.043 158,163.5C 167.177,158.162 177.01,154.496 187.5,152.5C 190.063,152.737 190.063,153.237 187.5,154C 197.509,153.133 207.509,153.466 217.5,155C 222.917,157.152 229.084,159.319 236,161.5C 238.175,161.166 240.008,160.166 241.5,158.5C 242.833,159.167 244.167,159.833 245.5,160.5C 246.795,157.988 247.461,155.321 247.5,152.5 Z"/></g>
<g><path style="opacity:1" fill="#f6c56e" d="M 311.5,160.5 C 308.622,162.105 305.622,163.439 302.5,164.5C 300.694,163.976 299.028,163.309 297.5,162.5C 297.5,161.167 297.5,159.833 297.5,158.5C 288.498,157.111 280.998,159.777 275,166.5C 270.97,172.02 266.803,177.353 262.5,182.5C 262.67,181.178 262.337,180.011 261.5,179C 266.589,171.077 272.589,163.911 279.5,157.5C 279.5,158.5 279.5,159.5 279.5,160.5C 281.754,158.081 284.421,156.248 287.5,155C 296.158,154.174 304.158,156.008 311.5,160.5 Z"/></g>
<g><path style="opacity:1" fill="#09676e" d="M 252.5,164.5 C 251.158,167.166 249.325,169.499 247,171.5C 245.786,169.951 244.286,168.785 242.5,168C 233.957,167.045 225.624,165.045 217.5,162C 213.642,161.19 209.976,161.357 206.5,162.5C 201.85,161.74 197.183,161.074 192.5,160.5C 193.347,159.034 194.68,158.2 196.5,158C 212.002,155.567 226.502,158.4 240,166.5C 242.301,165.2 244.301,163.533 246,161.5C 247.978,162.906 250.145,163.906 252.5,164.5 Z"/></g>
<g><path style="opacity:1" fill="#f3b340" d="M 297.5,162.5 C 290.783,162.017 284.783,163.85 279.5,168C 269.668,179.664 259.335,190.83 248.5,201.5C 248.343,200.127 248.51,198.793 249,197.5C 254.078,192.928 258.578,187.928 262.5,182.5C 266.803,177.353 270.97,172.02 275,166.5C 280.998,159.777 288.498,157.111 297.5,158.5C 297.5,159.833 297.5,161.167 297.5,162.5 Z"/></g>
<g><path style="opacity:1" fill="#0c5667" d="M 206.5,162.5 C 209.976,161.357 213.642,161.19 217.5,162C 225.624,165.045 233.957,167.045 242.5,168C 244.286,168.785 245.786,169.951 247,171.5C 249.325,169.499 251.158,167.166 252.5,164.5C 254.145,165.479 255.479,166.812 256.5,168.5C 257.243,167.092 258.077,165.759 259,164.5C 260,165.833 261,167.167 262,168.5C 262.915,167.672 263.581,166.672 264,165.5C 264.383,166.056 264.883,166.389 265.5,166.5C 261.519,172.475 257.186,178.142 252.5,183.5C 251.147,179.968 249.147,176.801 246.5,174C 241.839,174.257 237.505,174.757 233.5,175.5C 225.161,169.831 216.161,165.498 206.5,162.5 Z"/></g>
<g><path style="opacity:1" fill="#eb9807" d="M 297.5,162.5 C 299.028,163.309 300.694,163.976 302.5,164.5C 301.101,165.89 299.434,166.89 297.5,167.5C 294.276,167.203 291.276,167.87 288.5,169.5C 288.167,168.833 287.833,168.167 287.5,167.5C 285.972,168.861 284.305,170.028 282.5,171C 270.334,182.518 258.501,195.018 247,208.5C 246.667,208.167 246.333,207.833 246,207.5C 238.239,215.766 230.073,223.433 221.5,230.5C 213.401,235.417 205.401,240.584 197.5,246C 193.365,248.403 189.032,250.237 184.5,251.5C 191.292,246.932 198.292,242.599 205.5,238.5C 221.313,228.031 235.646,215.697 248.5,201.5C 259.335,190.83 269.668,179.664 279.5,168C 284.783,163.85 290.783,162.017 297.5,162.5 Z"/></g>
<g><path style="opacity:1" fill="#e4869f" d="M 373.5,205.5 C 374.291,203.691 374.291,201.691 373.5,199.5C 370.66,190.328 365.66,182.495 358.5,176C 356.254,174.961 354.087,173.794 352,172.5C 350.506,176.304 349.672,175.971 349.5,171.5C 345.132,171.63 340.798,171.297 336.5,170.5C 325.213,172.975 315.547,178.308 307.5,186.5C 307.167,186.333 306.833,186.167 306.5,186C 308.167,184.333 309.833,182.667 311.5,181C 310.833,180.333 310.167,180.333 309.5,181C 291.226,197.272 273.56,214.272 256.5,232C 255.833,232.667 255.167,232.667 254.5,232C 257.922,229.281 260.422,226.114 262,222.5C 251.799,232.37 241.299,241.87 230.5,251C 222.999,256.587 214.999,261.421 206.5,265.5C 205.833,265.167 205.167,264.833 204.5,264.5C 194.284,269.043 183.617,271.21 172.5,271C 174.384,270.784 176.051,270.117 177.5,269C 163.666,268.055 150.999,263.722 139.5,256C 138.207,255.51 136.873,255.343 135.5,255.5C 135.719,254.325 135.386,253.325 134.5,252.5C 128.08,247.084 122.413,241.084 117.5,234.5C 112.824,226.159 109.824,217.159 108.5,207.5C 114.953,231.794 129.62,249.294 152.5,260C 173.302,266.81 193.302,264.81 212.5,254C 230.355,243.076 246.688,230.243 261.5,215.5C 264.427,214.243 266.761,212.243 268.5,209.5C 274.489,204.843 280.156,199.843 285.5,194.5C 293.378,187.123 301.711,180.29 310.5,174C 342.284,155.59 363.784,163.757 375,198.5C 376.515,204.097 377.181,209.764 377,215.5C 376.134,212.021 374.967,208.688 373.5,205.5 Z"/></g>
<g><path style="opacity:1" fill="#bc7812" d="M 297.5,167.5 C 296.109,169.89 294.109,171.557 291.5,172.5C 288.309,173.092 285.309,174.259 282.5,176C 277.667,180.833 272.833,185.667 268,190.5C 267.517,191.448 267.351,192.448 267.5,193.5C 265.194,195.139 263.194,197.139 261.5,199.5C 259.5,200.833 257.833,202.5 256.5,204.5C 251.873,207.791 247.54,211.458 243.5,215.5C 242.448,215.351 241.448,215.517 240.5,216C 234.826,221.821 228.493,226.655 221.5,230.5C 230.073,223.433 238.239,215.766 246,207.5C 246.333,207.833 246.667,208.167 247,208.5C 258.501,195.018 270.334,182.518 282.5,171C 284.305,170.028 285.972,168.861 287.5,167.5C 287.833,168.167 288.167,168.833 288.5,169.5C 291.276,167.87 294.276,167.203 297.5,167.5 Z"/></g>
<g><path style="opacity:1" fill="#9d641b" d="M 291.5,172.5 C 287.833,175.833 284.167,179.167 280.5,182.5C 275.873,185.791 271.54,189.458 267.5,193.5C 267.351,192.448 267.517,191.448 268,190.5C 272.833,185.667 277.667,180.833 282.5,176C 285.309,174.259 288.309,173.092 291.5,172.5 Z"/></g>
<g><path style="opacity:1" fill="#d84a70" d="M 358.5,181.5 C 349.86,177.556 341.194,177.556 332.5,181.5C 323.798,184.351 315.798,188.517 308.5,194C 290.899,208.931 273.899,224.597 257.5,241C 244.703,252.573 230.369,261.907 214.5,269C 207.33,271.558 199.997,273.391 192.5,274.5C 216.216,266.639 237.216,254.139 255.5,237C 269.833,223.333 284.167,209.667 298.5,196C 305.479,190.177 312.812,184.844 320.5,180C 329.028,175.893 338.028,174.56 347.5,176C 351.787,176.81 355.454,178.643 358.5,181.5 Z"/></g>
<g><path style="opacity:1" fill="#0b435e" d="M 252.5,183.5 C 251.581,186.089 249.914,188.089 247.5,189.5C 243.833,183.833 239.167,179.167 233.5,175.5C 237.505,174.757 241.839,174.257 246.5,174C 249.147,176.801 251.147,179.968 252.5,183.5 Z"/></g>
<g><path style="opacity:1" fill="#dc5b7d" d="M 374.5,258.5 C 375.754,255.907 377.42,253.573 379.5,251.5C 386.594,241.993 389.927,231.16 389.5,219C 389.852,207.228 386.519,196.728 379.5,187.5C 378.969,185.456 377.802,183.789 376,182.5C 375.601,182.728 375.435,183.062 375.5,183.5C 374.404,181.897 373.07,180.397 371.5,179C 372.908,178.685 374.241,179.018 375.5,180C 393.553,196.381 398.386,216.214 390,239.5C 386.422,247.234 381.255,253.567 374.5,258.5 Z"/></g>
<g><path style="opacity:1" fill="#8b1a4c" d="M 367.5,191.5 C 369.5,194.167 371.5,196.833 373.5,199.5C 374.291,201.691 374.291,203.691 373.5,205.5C 361.929,186.708 346.929,183.542 328.5,196C 317.044,204.623 306.377,214.123 296.5,224.5C 292.88,226.453 289.88,229.119 287.5,232.5C 283.167,236.167 279.167,240.167 275.5,244.5C 260.848,259.988 244.181,272.821 225.5,283C 202.621,294.488 178.954,296.488 154.5,289C 128.153,275.849 112.32,254.682 107,225.5C 106.417,221.168 105.917,216.835 105.5,212.5C 105.5,208.167 105.5,203.833 105.5,199.5C 107.151,215.137 111.484,230.137 118.5,244.5C 117.016,246.866 117.683,248.199 120.5,248.5C 129.662,265.599 143.662,276.765 162.5,282C 154.946,281.231 147.946,278.731 141.5,274.5C 140.304,274.846 140.304,275.346 141.5,276C 168.055,291.757 195.055,292.424 222.5,278C 232.88,271.809 242.546,264.642 251.5,256.5C 251.833,256.667 252.167,256.833 252.5,257C 250.993,257.837 250.493,259.004 251,260.5C 257.167,255 263.333,249.5 269.5,244C 280,232.833 290.5,221.667 301,210.5C 301.333,211.167 301.667,211.833 302,212.5C 313.168,201.501 325.668,192.334 339.5,185C 345.192,183.143 350.859,183.143 356.5,185C 360.524,186.674 364.191,188.841 367.5,191.5 Z"/></g>
<g><path style="opacity:1" fill="#ce204f" d="M 332.5,181.5 C 322.702,187.579 313.368,194.412 304.5,202C 287.138,219.696 269.472,237.029 251.5,254C 235.664,267.251 217.664,276.251 197.5,281C 170.261,283.535 147.594,274.702 129.5,254.5C 134.653,258.81 139.986,262.977 145.5,267C 160.171,275.902 175.838,278.402 192.5,274.5C 199.997,273.391 207.33,271.558 214.5,269C 230.369,261.907 244.703,252.573 257.5,241C 273.899,224.597 290.899,208.931 308.5,194C 315.798,188.517 323.798,184.351 332.5,181.5 Z"/></g>
<g><path style="opacity:1" fill="#de6686" d="M 373.5,199.5 C 371.5,196.833 369.5,194.167 367.5,191.5C 365.169,187.506 362.169,184.172 358.5,181.5C 355.454,178.643 351.787,176.81 347.5,176C 338.028,174.56 329.028,175.893 320.5,180C 312.812,184.844 305.479,190.177 298.5,196C 284.167,209.667 269.833,223.333 255.5,237C 237.216,254.139 216.216,266.639 192.5,274.5C 175.838,278.402 160.171,275.902 145.5,267C 139.986,262.977 134.653,258.81 129.5,254.5C 128.243,251.573 126.243,249.239 123.5,247.5C 121.243,243.317 119.243,238.984 117.5,234.5C 122.413,241.084 128.08,247.084 134.5,252.5C 135.386,253.325 135.719,254.325 135.5,255.5C 136.873,255.343 138.207,255.51 139.5,256C 150.999,263.722 163.666,268.055 177.5,269C 176.051,270.117 174.384,270.784 172.5,271C 183.617,271.21 194.284,269.043 204.5,264.5C 205.167,264.833 205.833,265.167 206.5,265.5C 214.999,261.421 222.999,256.587 230.5,251C 241.299,241.87 251.799,232.37 262,222.5C 260.422,226.114 257.922,229.281 254.5,232C 255.167,232.667 255.833,232.667 256.5,232C 273.56,214.272 291.226,197.272 309.5,181C 310.167,180.333 310.833,180.333 311.5,181C 309.833,182.667 308.167,184.333 306.5,186C 306.833,186.167 307.167,186.333 307.5,186.5C 315.547,178.308 325.213,172.975 336.5,170.5C 340.798,171.297 345.132,171.63 349.5,171.5C 349.672,175.971 350.506,176.304 352,172.5C 354.087,173.794 356.254,174.961 358.5,176C 365.66,182.495 370.66,190.328 373.5,199.5 Z"/></g>
<g><path style="opacity:1" fill="#44d2b0" d="M 150.5,181.5 C 137.155,197.58 133.988,215.58 141,235.5C 141.697,237.584 142.864,239.251 144.5,240.5C 146.148,242.429 147.815,244.429 149.5,246.5C 143.458,243.951 138.958,239.285 136,232.5C 130.125,216.946 131.791,202.28 141,188.5C 143.501,185.152 146.668,182.818 150.5,181.5 Z"/></g>
<g><path style="opacity:1" fill="#214261" d="M 280.5,182.5 C 281.363,184.421 282.029,186.421 282.5,188.5C 282.586,189.496 282.252,190.329 281.5,191C 275.803,193.691 270.97,197.525 267,202.5C 266.391,205.065 266.891,207.399 268.5,209.5C 266.761,212.243 264.427,214.243 261.5,215.5C 261.567,214.041 261.234,212.708 260.5,211.5C 261.899,209.058 263.566,206.724 265.5,204.5C 264.902,203.205 264.402,201.872 264,200.5C 263.329,199.748 262.496,199.414 261.5,199.5C 263.194,197.139 265.194,195.139 267.5,193.5C 271.54,189.458 275.873,185.791 280.5,182.5 Z"/></g>
<g><path style="opacity:1" fill="#206672" d="M 282.5,188.5 C 283.87,190.25 284.87,192.25 285.5,194.5C 280.156,199.843 274.489,204.843 268.5,209.5C 266.891,207.399 266.391,205.065 267,202.5C 270.97,197.525 275.803,193.691 281.5,191C 282.252,190.329 282.586,189.496 282.5,188.5 Z"/></g>
<g><path style="opacity:1" fill="#ce2251" d="M 379.5,187.5 C 386.519,196.728 389.852,207.228 389.5,219C 389.927,231.16 386.594,241.993 379.5,251.5C 390.088,230.202 390.088,208.869 379.5,187.5 Z"/></g>
<g><path style="opacity:1" fill="#c786a1" d="M 106.5,190.5 C 105.523,193.287 105.19,196.287 105.5,199.5C 105.5,203.833 105.5,208.167 105.5,212.5C 104.099,202.947 104.266,193.281 106,183.5C 106.497,185.81 106.663,188.143 106.5,190.5 Z"/></g>
<g><path style="opacity:1" fill="#122b55" d="M 261.5,199.5 C 262.496,199.414 263.329,199.748 264,200.5C 264.402,201.872 264.902,203.205 265.5,204.5C 263.566,206.724 261.899,209.058 260.5,211.5C 258.929,209.365 257.596,207.032 256.5,204.5C 257.833,202.5 259.5,200.833 261.5,199.5 Z"/></g>
<g><path style="opacity:1" fill="#1ba78f" d="M 144.5,240.5 C 142.864,239.251 141.697,237.584 141,235.5C 133.988,215.58 137.155,197.58 150.5,181.5C 151.527,180.152 152.86,179.652 154.5,180C 143.304,191.931 138.471,206.098 140,222.5C 140.934,228.677 142.434,234.677 144.5,240.5 Z"/></g>
<g><path style="opacity:1" fill="#aa6d1a" d="M 347.5,198.5 C 344.008,199.41 341.008,201.076 338.5,203.5C 335.139,204.684 332.139,206.517 329.5,209C 325.258,212.079 321.591,215.579 318.5,219.5C 316.167,220.833 313.833,222.167 311.5,223.5C 319.923,212.629 330.256,204.129 342.5,198C 345.194,196.81 347.861,196.644 350.5,197.5C 349.675,198.386 348.675,198.719 347.5,198.5 Z"/></g>
<g><path style="opacity:1" fill="#b22955" d="M 379.5,187.5 C 390.088,208.869 390.088,230.202 379.5,251.5C 377.42,253.573 375.754,255.907 374.5,258.5C 372.296,259.946 369.963,260.78 367.5,261C 379.544,248.894 385.211,234.227 384.5,217C 384.541,204.995 381.541,193.828 375.5,183.5C 375.435,183.062 375.601,182.728 376,182.5C 377.802,183.789 378.969,185.456 379.5,187.5 Z"/></g>
<g><path style="opacity:1" fill="#f6c46e" d="M 347.5,198.5 C 339.561,204.77 332.228,211.77 325.5,219.5C 322.962,220.043 320.628,221.043 318.5,222.5C 325.167,216.167 331.833,209.833 338.5,203.5C 341.008,201.076 344.008,199.41 347.5,198.5 Z"/></g>
<g><path style="opacity:1" fill="#f2b23f" d="M 248.5,201.5 C 235.646,215.697 221.313,228.031 205.5,238.5C 213.833,231.167 222.167,223.833 230.5,216.5C 235.631,211.87 240.631,207.037 245.5,202C 246.448,201.517 247.448,201.351 248.5,201.5 Z"/></g>
<g><path style="opacity:1" fill="#355170" d="M 296.5,224.5 C 298.02,226.89 299.02,229.557 299.5,232.5C 295.536,233.312 291.869,234.979 288.5,237.5C 288.784,235.585 288.451,233.919 287.5,232.5C 289.88,229.119 292.88,226.453 296.5,224.5 Z"/></g>
<g><path style="opacity:1" fill="#b03863" d="M 106.5,190.5 C 107.058,196.18 107.725,201.847 108.5,207.5C 109.824,217.159 112.824,226.159 117.5,234.5C 119.243,238.984 121.243,243.317 123.5,247.5C 122.391,247.557 121.391,247.89 120.5,248.5C 117.683,248.199 117.016,246.866 118.5,244.5C 111.484,230.137 107.151,215.137 105.5,199.5C 105.19,196.287 105.523,193.287 106.5,190.5 Z"/></g>
<g><path style="opacity:1" fill="#c07a0f" d="M 318.5,219.5 C 308.485,229.019 299.318,239.353 291,250.5C 290.333,249.167 289.667,249.167 289,250.5C 283.815,260.895 275.981,267.562 265.5,270.5C 264.893,270.376 264.56,270.043 264.5,269.5C 265.945,267.937 267.611,266.604 269.5,265.5C 272.09,264.872 274.423,263.705 276.5,262C 285.104,253.238 293.104,244.071 300.5,234.5C 300.5,234.167 300.5,233.833 300.5,233.5C 304.167,230.167 307.833,226.833 311.5,223.5C 313.833,222.167 316.167,220.833 318.5,219.5 Z"/></g>
<g><path style="opacity:1" fill="#125e6c" d="M 299.5,232.5 C 300.167,232.5 300.5,232.833 300.5,233.5C 300.5,233.833 300.5,234.167 300.5,234.5C 293.5,241.167 286.5,247.833 279.5,254.5C 279.443,253.391 279.11,252.391 278.5,251.5C 280.84,246.164 284.174,241.497 288.5,237.5C 291.869,234.979 295.536,233.312 299.5,232.5 Z"/></g>
<g><path style="opacity:1" fill="#173056" d="M 287.5,232.5 C 288.451,233.919 288.784,235.585 288.5,237.5C 284.174,241.497 280.84,246.164 278.5,251.5C 277.227,249.287 276.227,246.954 275.5,244.5C 279.167,240.167 283.167,236.167 287.5,232.5 Z"/></g>
<g><path style="opacity:1" fill="#a66c20" d="M 243.5,215.5 C 226.742,232.057 207.409,244.89 185.5,254C 180.937,255.475 176.27,256.308 171.5,256.5C 171.5,256.167 171.5,255.833 171.5,255.5C 176.123,254.958 180.457,253.624 184.5,251.5C 189.032,250.237 193.365,248.403 197.5,246C 205.401,240.584 213.401,235.417 221.5,230.5C 228.493,226.655 234.826,221.821 240.5,216C 241.448,215.517 242.448,215.351 243.5,215.5 Z"/></g>
<g><path style="opacity:1" fill="#a7194c" d="M 358.5,181.5 C 362.169,184.172 365.169,187.506 367.5,191.5C 364.191,188.841 360.524,186.674 356.5,185C 350.859,183.143 345.192,183.143 339.5,185C 325.668,192.334 313.168,201.501 302,212.5C 301.667,211.833 301.333,211.167 301,210.5C 290.5,221.667 280,232.833 269.5,244C 263.333,249.5 257.167,255 251,260.5C 250.493,259.004 250.993,257.837 252.5,257C 252.167,256.833 251.833,256.667 251.5,256.5C 242.546,264.642 232.88,271.809 222.5,278C 195.055,292.424 168.055,291.757 141.5,276C 140.304,275.346 140.304,274.846 141.5,274.5C 147.946,278.731 154.946,281.231 162.5,282C 143.662,276.765 129.662,265.599 120.5,248.5C 121.391,247.89 122.391,247.557 123.5,247.5C 126.243,249.239 128.243,251.573 129.5,254.5C 147.594,274.702 170.261,283.535 197.5,281C 217.664,276.251 235.664,267.251 251.5,254C 269.472,237.029 287.138,219.696 304.5,202C 313.368,194.412 322.702,187.579 332.5,181.5C 341.194,177.556 349.86,177.556 358.5,181.5 Z"/></g>
<g><path style="opacity:1" fill="#f6c877" d="M 230.5,216.5 C 222.167,223.833 213.833,231.167 205.5,238.5C 198.292,242.599 191.292,246.932 184.5,251.5C 180.457,253.624 176.123,254.958 171.5,255.5C 185.613,248.941 198.613,240.608 210.5,230.5C 215.74,226.767 220.574,222.434 225,217.5C 225.333,217.833 225.667,218.167 226,218.5C 227.192,216.35 228.692,215.683 230.5,216.5 Z"/></g>
<g><path style="opacity:1" fill="#f6d291" d="M 325.5,219.5 C 318.43,227.324 312.096,235.658 306.5,244.5C 301.056,250.951 296.39,257.951 292.5,265.5C 291.026,266.436 290.026,267.77 289.5,269.5C 284.776,276.384 278.443,281.217 270.5,284C 258.902,286.02 247.235,287.02 235.5,287C 239.646,285.426 243.646,283.593 247.5,281.5C 259.852,285.117 270.518,282.284 279.5,273C 280.449,272.383 281.282,272.549 282,273.5C 289.602,263.926 296.935,254.259 304,244.5C 305.993,242.182 307.159,239.516 307.5,236.5C 311.19,231.815 314.857,227.148 318.5,222.5C 320.628,221.043 322.962,220.043 325.5,219.5 Z"/></g>
<g><path style="opacity:1" fill="#f3b340" d="M 318.5,222.5 C 314.857,227.148 311.19,231.815 307.5,236.5C 298.364,247.814 289.364,259.314 280.5,271C 275.551,275.141 269.884,277.641 263.5,278.5C 263.715,276.821 263.048,275.821 261.5,275.5C 268.47,274.353 274.804,271.52 280.5,267C 287.667,257.833 294.833,248.667 302,239.5C 307.004,233.33 312.504,227.663 318.5,222.5 Z"/></g>
<g><path style="opacity:1" fill="#42d2b2" d="M 363.5,241.5 C 364.043,241.56 364.376,241.893 364.5,242.5C 355.669,261.549 341.002,272.216 320.5,274.5C 316.219,273.914 311.886,273.914 307.5,274.5C 306.833,274.167 306.167,273.833 305.5,273.5C 304.89,271.566 303.89,269.899 302.5,268.5C 302.5,268.167 302.5,267.833 302.5,267.5C 303.304,265.811 304.304,264.145 305.5,262.5C 306.183,262.863 306.85,263.196 307.5,263.5C 307.244,265.792 307.577,267.959 308.5,270C 328.868,271.487 345.534,264.32 358.5,248.5C 359.925,247.078 360.925,245.411 361.5,243.5C 362.5,243.167 363.167,242.5 363.5,241.5 Z"/></g>
<g><path style="opacity:1" fill="#03c499" d="M 358.5,248.5 C 345.534,264.32 328.868,271.487 308.5,270C 307.577,267.959 307.244,265.792 307.5,263.5C 307.833,263.5 308.167,263.5 308.5,263.5C 321.497,266.805 333.83,264.972 345.5,258C 350.01,254.977 354.344,251.811 358.5,248.5 Z"/></g>
<g><path style="opacity:1" fill="#1e5169" d="M 306.5,244.5 C 308.724,247.624 311.724,249.791 315.5,251C 319.905,253.372 324.572,254.872 329.5,255.5C 329.5,255.833 329.5,256.167 329.5,256.5C 321.444,256.802 313.444,256.469 305.5,255.5C 303.448,256.611 302.114,258.277 301.5,260.5C 299.926,262.102 299.259,264.102 299.5,266.5C 299.5,267.167 299.167,267.5 298.5,267.5C 298.778,265.654 298.111,264.32 296.5,263.5C 295.571,264.689 295.238,266.022 295.5,267.5C 293.821,267.715 292.821,267.048 292.5,265.5C 296.39,257.951 301.056,250.951 306.5,244.5 Z"/></g>
<g><path style="opacity:1" fill="#e7bf7e" d="M 171.5,255.5 C 171.5,255.833 171.5,256.167 171.5,256.5C 170.054,257.613 168.387,257.78 166.5,257C 167.905,255.731 169.571,255.231 171.5,255.5 Z"/></g>
<g><path style="opacity:1" fill="#04656d" d="M 329.5,256.5 C 337.322,256.413 337.322,257.246 329.5,259C 323.04,259.92 316.707,259.42 310.5,257.5C 308.444,258.048 306.777,259.214 305.5,261C 304.072,261.579 302.738,261.412 301.5,260.5C 302.114,258.277 303.448,256.611 305.5,255.5C 313.444,256.469 321.444,256.802 329.5,256.5 Z"/></g>
<g><path style="opacity:1" fill="#6cddc3" d="M 327.5,278.5 C 322.489,278.666 317.489,278.499 312.5,278C 310.654,276.97 308.987,275.804 307.5,274.5C 311.886,273.914 316.219,273.914 320.5,274.5C 341.002,272.216 355.669,261.549 364.5,242.5C 364.376,241.893 364.043,241.56 363.5,241.5C 367.089,237.328 369.922,232.661 372,227.5C 366.914,253.004 352.081,270.004 327.5,278.5 Z"/></g>
<g><path style="opacity:1" fill="#a26a1c" d="M 300.5,234.5 C 293.104,244.071 285.104,253.238 276.5,262C 274.423,263.705 272.09,264.872 269.5,265.5C 272.833,261.833 276.167,258.167 279.5,254.5C 286.5,247.833 293.5,241.167 300.5,234.5 Z"/></g>
<g><path style="opacity:1" fill="#0e807b" d="M 352.5,250.5 C 348.91,253.639 344.91,256.306 340.5,258.5C 339.833,258.167 339.167,257.833 338.5,257.5C 336.205,258.432 333.871,259.265 331.5,260C 324.167,260.333 316.833,260.667 309.5,261C 308.748,261.671 308.414,262.504 308.5,263.5C 308.167,263.5 307.833,263.5 307.5,263.5C 306.85,263.196 306.183,262.863 305.5,262.5C 304.304,264.145 303.304,265.811 302.5,267.5C 301.791,266.596 300.791,266.263 299.5,266.5C 299.259,264.102 299.926,262.102 301.5,260.5C 302.738,261.412 304.072,261.579 305.5,261C 306.777,259.214 308.444,258.048 310.5,257.5C 316.707,259.42 323.04,259.92 329.5,259C 337.322,257.246 337.322,256.413 329.5,256.5C 329.5,256.167 329.5,255.833 329.5,255.5C 337.612,255.745 345.279,254.078 352.5,250.5 Z"/></g>
<g><path style="opacity:1" fill="#ea9707" d="M 338.5,203.5 C 331.833,209.833 325.167,216.167 318.5,222.5C 312.504,227.663 307.004,233.33 302,239.5C 294.833,248.667 287.667,257.833 280.5,267C 274.804,271.52 268.47,274.353 261.5,275.5C 260.167,275.5 259.5,274.833 259.5,273.5C 261.167,272.167 262.833,270.833 264.5,269.5C 264.56,270.043 264.893,270.376 265.5,270.5C 275.981,267.562 283.815,260.895 289,250.5C 289.667,249.167 290.333,249.167 291,250.5C 299.318,239.353 308.485,229.019 318.5,219.5C 321.591,215.579 325.258,212.079 329.5,209C 332.139,206.517 335.139,204.684 338.5,203.5 Z"/></g>
<g><path style="opacity:1" fill="#079e87" d="M 361.5,243.5 C 360.925,245.411 359.925,247.078 358.5,248.5C 354.344,251.811 350.01,254.977 345.5,258C 333.83,264.972 321.497,266.805 308.5,263.5C 308.414,262.504 308.748,261.671 309.5,261C 316.833,260.667 324.167,260.333 331.5,260C 333.871,259.265 336.205,258.432 338.5,257.5C 339.167,257.833 339.833,258.167 340.5,258.5C 344.91,256.306 348.91,253.639 352.5,250.5C 355.642,248.42 358.642,246.086 361.5,243.5 Z"/></g>
<g><path style="opacity:1" fill="#0f385a" d="M 298.5,267.5 C 298.5,271.493 299.5,275.159 301.5,278.5C 296.934,276.269 292.934,273.269 289.5,269.5C 290.026,267.77 291.026,266.436 292.5,265.5C 292.821,267.048 293.821,267.715 295.5,267.5C 295.238,266.022 295.571,264.689 296.5,263.5C 298.111,264.32 298.778,265.654 298.5,267.5 Z"/></g>
<g><path style="opacity:1" fill="#57919a" d="M 299.5,266.5 C 300.791,266.263 301.791,266.596 302.5,267.5C 302.5,267.833 302.5,268.167 302.5,268.5C 301.9,272.516 302.9,276.016 305.5,279C 305.272,279.399 304.938,279.565 304.5,279.5C 303.391,279.443 302.391,279.11 301.5,278.5C 299.5,275.159 298.5,271.493 298.5,267.5C 299.167,267.5 299.5,267.167 299.5,266.5 Z"/></g>
<g><path style="opacity:1" fill="#f6c46d" d="M 307.5,236.5 C 307.159,239.516 305.993,242.182 304,244.5C 296.935,254.259 289.602,263.926 282,273.5C 281.282,272.549 280.449,272.383 279.5,273C 270.518,282.284 259.852,285.117 247.5,281.5C 251.772,279.226 255.772,276.559 259.5,273.5C 259.5,274.833 260.167,275.5 261.5,275.5C 263.048,275.821 263.715,276.821 263.5,278.5C 269.884,277.641 275.551,275.141 280.5,271C 289.364,259.314 298.364,247.814 307.5,236.5 Z"/></g>
<g><path style="opacity:1" fill="#70b7b2" d="M 302.5,268.5 C 303.89,269.899 304.89,271.566 305.5,273.5C 306.086,275.84 307.086,278.007 308.5,280C 308.272,280.399 307.938,280.565 307.5,280.5C 306.209,280.737 305.209,280.404 304.5,279.5C 304.938,279.565 305.272,279.399 305.5,279C 302.9,276.016 301.9,272.516 302.5,268.5 Z"/></g>
<g><path style="opacity:1" fill="#9ae7d6" d="M 305.5,273.5 C 306.167,273.833 306.833,274.167 307.5,274.5C 308.987,275.804 310.654,276.97 312.5,278C 317.489,278.499 322.489,278.666 327.5,278.5C 320.999,281.272 314.332,281.939 307.5,280.5C 307.938,280.565 308.272,280.399 308.5,280C 307.086,278.007 306.086,275.84 305.5,273.5 Z"/></g>
<g><path style="opacity:1" fill="#ffc257" d="M 152.5,314.5 C 174.035,313.86 180.868,323.527 173,343.5C 164.564,350.844 155.731,351.344 146.5,345C 140.985,337.67 140.152,329.837 144,321.5C 146.441,318.546 149.275,316.213 152.5,314.5 Z"/></g>
<g><path style="opacity:1" fill="#ffc257" d="M 202.5,314.5 C 211.433,312.555 218.6,315.221 224,322.5C 224.483,323.448 224.649,324.448 224.5,325.5C 220.698,326.12 217.365,325.286 214.5,323C 201.667,319.833 196.833,324.667 200,337.5C 203.66,341.367 208.16,342.534 213.5,341C 215.019,339.649 216.352,338.149 217.5,336.5C 213.893,335.511 210.226,335.177 206.5,335.5C 206.5,333.5 206.5,331.5 206.5,329.5C 212.833,329.5 219.167,329.5 225.5,329.5C 226.296,341.701 220.63,348.368 208.5,349.5C 195.431,347.93 189.597,340.597 191,327.5C 191.806,324.554 193.139,321.888 195,319.5C 197.479,317.686 199.979,316.019 202.5,314.5 Z"/></g>
<g><path style="opacity:1" fill="#ffc257" d="M 251.5,314.5 C 261.304,312.762 268.638,316.095 273.5,324.5C 268.727,325.976 264.393,325.143 260.5,322C 250.557,320.947 246.391,325.447 248,335.5C 248.685,338.057 250.185,339.891 252.5,341C 258.567,342.833 263.234,341.167 266.5,336C 262.848,335.501 259.182,335.335 255.5,335.5C 255.5,333.5 255.5,331.5 255.5,329.5C 261.833,329.5 268.167,329.5 274.5,329.5C 273.384,345.452 265.051,351.619 249.5,348C 238.9,340.895 236.733,331.729 243,320.5C 245.671,318.098 248.505,316.098 251.5,314.5 Z"/></g>
<g><path style="opacity:1" fill="#ffc256" d="M 371.5,314.5 C 378.812,313.306 385.312,314.973 391,319.5C 392.559,321.217 393.392,323.217 393.5,325.5C 388.86,326.264 384.86,325.097 381.5,322C 373.249,319.955 368.582,323.122 367.5,331.5C 368.72,340.544 373.72,343.711 382.5,341C 384.635,340.241 385.968,338.741 386.5,336.5C 383.232,335.513 379.898,335.18 376.5,335.5C 376.5,333.5 376.5,331.5 376.5,329.5C 382.833,329.5 389.167,329.5 395.5,329.5C 395.464,341.363 389.631,348.03 378,349.5C 364.017,347.565 358.35,339.565 361,325.5C 363.357,320.645 366.857,316.979 371.5,314.5 Z"/></g>
<g><path style="opacity:1" fill="#ffd180" d="M 113.5,315.5 C 111.167,315.5 108.833,315.5 106.5,315.5C 106.5,326.5 106.5,337.5 106.5,348.5C 105.505,337.346 105.172,326.012 105.5,314.5C 108.385,314.194 111.052,314.527 113.5,315.5 Z"/></g>
<g><path style="opacity:1" fill="#ffc052" d="M 113.5,315.5 C 113.5,324.167 113.5,332.833 113.5,341.5C 118.5,341.5 123.5,341.5 128.5,341.5C 128.5,343.833 128.5,346.167 128.5,348.5C 121.167,348.5 113.833,348.5 106.5,348.5C 106.5,337.5 106.5,326.5 106.5,315.5C 108.833,315.5 111.167,315.5 113.5,315.5 Z"/></g>
<g><path style="opacity:1" fill="#ffe5b9" d="M 297.5,348.5 C 297.5,337.5 297.5,326.5 297.5,315.5C 295.167,315.5 292.833,315.5 290.5,315.5C 290.5,326.5 290.5,337.5 290.5,348.5C 289.505,337.346 289.172,326.012 289.5,314.5C 292.5,314.5 295.5,314.5 298.5,314.5C 298.828,326.012 298.495,337.346 297.5,348.5 Z"/></g>
<g><path style="opacity:1" fill="#fec04f" d="M 297.5,348.5 C 295.167,348.5 292.833,348.5 290.5,348.5C 290.5,337.5 290.5,326.5 290.5,315.5C 292.833,315.5 295.167,315.5 297.5,315.5C 297.5,326.5 297.5,337.5 297.5,348.5 Z"/></g>
<g><path style="opacity:1" fill="#ffc154" d="M 324.5,329.5 C 324.44,328.957 324.107,328.624 323.5,328.5C 322.503,335.134 322.17,341.8 322.5,348.5C 320.167,348.5 317.833,348.5 315.5,348.5C 315.5,337.167 315.5,325.833 315.5,314.5C 317.924,314.192 320.257,314.526 322.5,315.5C 326.808,321.641 331.308,327.641 336,333.5C 336.5,327.175 336.666,320.842 336.5,314.5C 339.167,314.5 341.833,314.5 344.5,314.5C 344.5,325.833 344.5,337.167 344.5,348.5C 342.143,348.663 339.81,348.497 337.5,348C 333.28,341.717 328.947,335.55 324.5,329.5 Z"/></g>
<g><path style="opacity:1" fill="#fffdfc" d="M 155.5,321.5 C 166.054,321.219 170.221,326.219 168,336.5C 167.167,338.667 165.667,340.167 163.5,341C 151.829,342.993 147.329,338.16 150,326.5C 151.73,324.598 153.563,322.931 155.5,321.5 Z"/></g>
<g><path style="opacity:1" fill="#ffd68e" d="M 324.5,329.5 C 323.833,335.833 323.167,342.167 322.5,348.5C 322.17,341.8 322.503,335.134 323.5,328.5C 324.107,328.624 324.44,328.957 324.5,329.5 Z"/></g>
</svg>
