<?xml version="1.0" standalone="no"?>
<!DOCTYPE svg PUBLIC "-//W3C//DTD SVG 20010904//EN"
 "http://www.w3.org/TR/2001/REC-SVG-20010904/DTD/svg10.dtd">
<svg version="1.0" xmlns="http://www.w3.org/2000/svg"
 width="5561.000000pt" height="1004.000000pt" viewBox="0 0 5561.000000 1004.000000"
 preserveAspectRatio="xMidYMid meet">

<g transform="translate(0.000000,1004.000000) scale(0.100000,-0.100000)"
fill="#000000" stroke="none">
<path d="M47540 5213 l0 -4823 575 0 575 0 2 3427 3 3427 3430 -3594 c1886
-1977 3439 -3605 3452 -3619 l22 -26 1 4793 0 4792 -575 0 -575 0 -2 -3395 -3
-3394 -3370 3530 c-1853 1942 -3407 3569 -3452 3617 l-82 87 -1 -4822z"/>
<path d="M32030 9784 c-1091 -81 -2046 -475 -2844 -1175 -147 -129 -402 -388
-514 -524 -620 -745 -986 -1600 -1103 -2576 -19 -154 -23 -239 -23 -519 -1
-353 6 -465 49 -743 263 -1708 1451 -3181 3045 -3775 465 -174 938 -265 1445
-279 821 -22 1624 169 2300 546 1120 627 1881 1744 2100 3086 49 299 57 403
62 813 l5 392 -1826 0 -1826 0 0 -525 0 -525 1192 0 1191 0 -6 -103 c-35 -564
-325 -1168 -791 -1646 -631 -646 -1512 -1020 -2326 -987 -1130 45 -2154 649
-2825 1666 -338 511 -539 1052 -622 1665 -25 187 -25 674 0 875 106 859 475
1628 1062 2215 592 593 1325 949 2165 1052 203 25 642 24 825 -1 627 -86 1213
-326 1727 -708 274 -204 591 -519 750 -747 l17 -25 98 95 c54 52 234 224 401
383 166 159 302 292 302 295 0 16 -218 260 -344 386 -525 522 -1143 901 -1861
1140 -351 118 -680 190 -1046 230 -138 15 -656 28 -779 19z"/>
<path d="M41695 9714 c-892 -70 -1746 -373 -2445 -867 -112 -79 -115 -82 -50
-56 131 53 499 172 663 213 416 106 825 169 1342 208 212 16 1088 15 1440 -1
492 -23 871 -59 1183 -111 152 -26 360 -74 416 -96 36 -14 6 16 -77 78 -315
233 -958 513 -1317 573 -292 49 -398 57 -760 60 -190 1 -367 1 -395 -1z"/>
<path d="M10 4991 l0 -4601 570 0 570 0 2 1928 3 1927 545 6 c405 5 581 11
685 23 852 99 1477 353 1928 785 380 364 607 824 691 1401 51 352 37 846 -34
1196 -140 689 -505 1174 -1119 1488 -381 195 -886 331 -1471 396 -377 41 -413
43 -1397 47 l-973 4 0 -4600z m1855 3569 c571 -30 962 -111 1294 -271 441
-212 690 -535 776 -1006 9 -49 19 -165 22 -259 29 -858 -379 -1401 -1221
-1624 -337 -89 -750 -130 -1323 -130 l-263 0 0 1650 0 1650 263 0 c144 0 348
-5 452 -10z"/>
<path d="M13250 4991 l0 -4601 575 0 575 0 0 1945 0 1945 239 0 238 0 1353
-1945 1353 -1945 694 0 c381 0 693 2 693 5 0 3 -648 900 -1440 1992 -793 1092
-1442 1991 -1443 1997 -1 6 12 12 28 14 17 2 96 16 177 32 738 148 1364 625
1702 1299 305 606 371 1331 182 1989 -189 656 -637 1216 -1202 1503 -289 146
-620 246 -1008 304 -374 56 -415 58 -1608 62 l-1108 4 0 -4600z m1840 3569
c557 -32 953 -115 1278 -270 390 -187 636 -450 757 -814 91 -272 109 -649 44
-968 -90 -452 -346 -782 -764 -988 -216 -106 -411 -167 -691 -215 -278 -48
-404 -57 -871 -62 l-443 -5 0 1666 0 1666 258 0 c141 0 336 -5 432 -10z"/>
<path d="M6375 5397 c-1050 -2294 -1996 -4360 -2101 -4589 l-192 -418 617 0
616 0 431 948 430 947 2115 0 2114 0 430 -947 430 -947 617 -1 617 0 -47 103
c-966 2115 -4158 9077 -4162 9077 -3 0 -864 -1878 -1915 -4173z m2733 -195
c447 -1016 812 -1851 812 -1855 0 -4 -734 -7 -1631 -7 -1549 0 -1631 1 -1625
18 28 73 1622 3692 1627 3692 3 0 371 -832 817 -1848z"/>
<path d="M21515 5007 c-1148 -2509 -2095 -4574 -2102 -4590 l-14 -27 618 2
617 3 407 895 c224 492 419 919 433 948 l26 52 2111 -2 2112 -3 430 -947 431
-948 614 0 c580 0 614 1 609 18 -8 28 -4186 9145 -4195 9154 -4 4 -948 -2045
-2097 -4555z m2909 200 c444 -1011 810 -1845 813 -1853 4 -12 -209 -14 -1627
-14 -1400 0 -1631 2 -1628 14 8 38 1624 3703 1629 3698 4 -4 370 -834 813
-1845z"/>
<path d="M41350 8733 c-228 -9 -819 -60 -1076 -93 -746 -97 -1323 -243 -1709
-436 -106 -53 -113 -58 -197 -157 -227 -265 -403 -519 -576 -834 -34 -61 -62
-114 -62 -117 0 -2 46 17 103 44 270 129 619 219 1067 274 880 108 1377 134
2785 143 1081 7 1604 -5 2360 -52 595 -38 1237 -109 1547 -173 l86 -18 -15 30
c-28 54 -183 317 -280 474 -52 85 -93 156 -90 158 6 6 273 -72 357 -105 108
-42 197 -84 259 -121 30 -17 50 -26 45 -18 -6 7 -32 42 -59 78 -150 201 -370
443 -424 467 -192 83 -504 182 -716 228 -502 109 -1327 192 -2220 225 -241 9
-990 11 -1185 3z"/>
<path d="M41585 6884 c-533 -4 -1427 -22 -1670 -34 -642 -32 -1612 -119 -1843
-166 -247 -50 -415 -101 -534 -160 l-67 -34 -37 -117 c-81 -260 -148 -566
-179 -823 -28 -238 -29 -213 1 -206 65 17 324 36 589 45 160 6 466 16 680 23
818 27 7498 11 7648 -18 26 -5 27 -4 27 38 0 64 -37 329 -74 531 l-32 179 45
-7 c172 -24 485 -96 566 -130 l34 -14 -6 32 c-11 56 -91 340 -115 407 -23 65
-23 65 -98 102 -200 100 -555 182 -955 223 -396 40 -1263 88 -2045 115 -323
10 -1350 18 -1935 14z"/>
<path d="M37224 4674 c16 -269 61 -573 123 -831 l37 -152 68 -31 c246 -110
771 -185 1563 -225 1204 -60 2893 -100 3595 -85 1354 29 3321 128 3401 171 21
11 75 226 114 455 15 82 28 159 31 170 3 19 13 23 76 29 68 6 311 40 493 68
l80 12 11 85 c16 112 39 428 33 435 -3 2 -48 0 -100 -5 -233 -24 -1453 -31
-4854 -27 -3017 3 -3566 6 -3910 20 -220 9 -483 19 -584 23 l-184 7 7 -119z"/>
<path d="M46375 3101 c-264 -135 -585 -214 -1155 -285 -363 -46 -1046 -77
-2540 -117 -1153 -31 -2983 35 -3915 142 -590 67 -891 136 -1113 254 -36 19
-67 33 -69 31 -5 -4 77 -186 138 -309 126 -250 328 -571 486 -771 73 -92 82
-100 153 -131 507 -220 1251 -387 2145 -479 557 -58 2092 -85 2635 -46 605 43
1308 136 1794 238 l129 27 94 120 c108 138 257 358 333 492 50 89 53 92 93 98
187 28 334 72 482 144 167 82 169 84 272 287 50 99 103 208 118 244 15 36 34
80 42 98 7 17 12 31 11 31 -2 -1 -61 -32 -133 -68z"/>
<path d="M38885 1334 c137 -124 409 -322 617 -450 615 -378 1321 -614 2063
-690 207 -21 687 -24 880 -6 414 41 766 113 1128 233 406 134 846 352 1201
595 106 73 321 237 396 303 l35 30 -85 -35 c-399 -167 -1034 -312 -1630 -373
-520 -54 -927 -74 -1480 -75 -585 0 -1036 23 -1544 79 -605 67 -1097 193
-1546 396 l-85 39 50 -46z"/>
</g>
</svg>
